<svg width="47" height="47" viewBox="0 0 47 47" fill="none" xmlns="http://www.w3.org/2000/svg">
<path d="M23.4375 0.186188C10.5469 0.186188 0 10.5362 0 23.1862C0 35.8362 10.5469 46.1862 23.4375 46.1862C36.3281 46.1862 46.875 35.8362 46.875 23.1862C46.875 10.5362 36.3281 0.186188 23.4375 0.186188ZM23.4375 7.08619C27.4219 7.08619 30.4688 10.0762 30.4688 13.9862C30.4688 17.8962 27.4219 20.8862 23.4375 20.8862C19.4531 20.8862 16.4062 17.8962 16.4062 13.9862C16.4062 10.0762 19.4531 7.08619 23.4375 7.08619ZM23.4375 39.7462C17.5781 39.7462 12.4219 36.7563 9.375 32.3862C9.375 27.7862 18.75 25.2562 23.4375 25.2562C28.125 25.2562 37.5 27.7862 37.5 32.3862C34.4531 36.7562 29.2969 39.7462 23.4375 39.7462Z" fill="white"/>
</svg>
