<svg width="51" height="46" viewBox="0 0 51 46" fill="none" xmlns="http://www.w3.org/2000/svg">
<path d="M10.2 13.143C12.0774 13.143 13.6798 12.5015 15.0076 11.218C16.3359 9.9345 17.0001 8.38555 17.0001 6.57163C17.0001 4.7579 16.3359 3.20895 15.0076 1.92531C13.6798 0.641861 12.0773 0 10.2 0C8.32282 0 6.72035 0.641861 5.39225 1.92531C4.06424 3.20895 3.40005 4.75754 3.40005 6.57163C3.40005 8.38591 4.06424 9.9345 5.39225 11.218C6.72035 12.5011 8.32282 13.143 10.2 13.143Z" fill="white"/>
<path d="M18.2882 23.3983C20.2804 25.3229 22.684 26.2857 25.5 26.2857C28.3162 26.2857 30.7197 25.3229 32.7118 23.3983C34.7036 21.4725 35.6999 19.1494 35.6999 16.4286C35.6999 13.7076 34.7036 11.3846 32.7118 9.45926C30.7197 7.53395 28.3162 6.57129 25.5 6.57129C22.684 6.57129 20.2802 7.53413 18.2882 9.45926C16.2962 11.3843 15.2998 13.7073 15.2998 16.4286C15.2998 19.1498 16.2962 21.4727 18.2882 23.3983Z" fill="white"/>
<path d="M40.8007 13.143C42.6773 13.143 44.28 12.5015 45.608 11.218C46.936 9.9345 47.5999 8.38555 47.5999 6.57163C47.5999 4.7579 46.936 3.20895 45.608 1.92531C44.2801 0.641861 42.6773 0 40.8007 0C38.9229 0 37.3205 0.641861 35.9924 1.92531C34.6646 3.20895 34.0005 4.75754 34.0005 6.57163C34.0005 8.38591 34.6647 9.9345 35.9924 11.218C37.3205 12.5011 38.9229 13.143 40.8007 13.143Z" fill="white"/>
<path d="M47.7059 13.1433C47.6002 13.1433 47.2151 13.323 46.5509 13.6824C45.8873 14.042 45.0236 14.4056 43.9614 14.7736C42.8993 15.1413 41.8451 15.3253 40.8007 15.3253C39.6138 15.3253 38.437 15.1287 37.2678 14.7349C37.3558 15.3678 37.4003 15.9327 37.4003 16.4289C37.4003 18.8077 36.683 20.998 35.248 23.0003C38.1174 23.0862 40.4633 24.1812 42.2879 26.2867H45.8471C47.299 26.2867 48.5209 25.9394 49.5124 25.2464C50.5039 24.5539 51 23.5394 51 22.2048C51.0003 16.1634 49.9028 13.143 47.7059 13.1433Z" fill="white"/>
<path d="M43.7363 33.897C43.5503 32.8957 43.3154 31.9671 43.032 31.1118C42.7486 30.2557 42.3678 29.422 41.8904 28.609C41.4121 27.7968 40.8629 27.1032 40.2431 26.5297C39.6228 25.9562 38.8656 25.499 37.9717 25.1563C37.0777 24.8141 36.09 24.6431 35.01 24.6431C34.8327 24.6431 34.4522 24.8271 33.8677 25.1951C33.2831 25.5627 32.6374 25.9742 31.9287 26.427C31.2202 26.8799 30.2737 27.291 29.0864 27.659C27.8991 28.027 26.7039 28.211 25.5004 28.211C24.2964 28.211 23.1009 28.027 21.9144 27.659C20.7276 27.291 19.7805 26.8799 19.0721 26.427C18.3635 25.9742 17.7174 25.5627 17.1331 25.1951C16.5486 24.8271 16.1681 24.6431 15.9907 24.6431C14.9107 24.6431 13.9234 24.8141 13.0291 25.1563C12.1347 25.499 11.3778 25.9562 10.758 26.5297C10.1378 27.1026 9.58931 27.7968 9.11083 28.609C8.63289 29.422 8.25219 30.2557 7.9688 31.1118C7.6855 31.9671 7.45114 32.8957 7.26488 33.897C7.0788 34.8982 6.95497 35.8305 6.89301 36.695C6.83095 37.5593 6.80006 38.4452 6.80006 39.3522C6.80006 41.4054 7.44621 43.0271 8.73886 44.2161C10.032 45.405 11.7498 46.0001 13.8921 46.0001H37.1081C39.2505 46.0001 40.9682 45.405 42.2616 44.2161C43.5542 43.0271 44.2006 41.4054 44.2006 39.3522C44.2006 38.4452 44.1694 37.5596 44.1083 36.695C44.0454 35.8305 43.9216 34.8981 43.7363 33.897Z" fill="white"/>
<path d="M15.7514 23.0003C14.317 20.998 13.6 18.8077 13.6002 16.4289C13.6002 15.9326 13.6446 15.3681 13.733 14.7349C12.5641 15.1284 11.3865 15.3253 10.2 15.3253C9.15521 15.3253 8.10185 15.1414 7.03918 14.7736C5.97698 14.4056 5.11341 14.042 4.44959 13.6824C3.78549 13.323 3.40004 13.1433 3.29388 13.1433C1.09793 13.1434 0 16.1639 0 22.2048C0 23.5394 0.495887 24.5539 1.48738 25.2464C2.47916 25.9394 3.70111 26.286 5.15276 26.286H8.71236C10.5365 24.1812 12.8826 23.0861 15.7514 23.0003Z" fill="white"/>
</svg>
