<svg width="43" height="32" viewBox="0 0 43 32" fill="none" xmlns="http://www.w3.org/2000/svg">
<path d="M21.2095 6.34827L6.08108 17.967C6.08108 17.9834 6.07665 18.0075 6.06781 18.0404C6.05914 18.073 6.05453 18.0967 6.05453 18.1135V29.8787C6.05453 30.3035 6.22124 30.6716 6.55457 30.9816C6.8878 31.2918 7.2824 31.4479 7.73848 31.4479H17.8414V22.0355H24.5776V31.4482H34.6805C35.1365 31.4482 35.5316 31.2925 35.8644 30.9816C36.1977 30.672 36.365 30.3036 36.365 29.8787V18.1135C36.365 18.0483 36.3554 17.999 36.3384 17.967L21.2095 6.34827Z" fill="white"/>
<path d="M42.126 15.3197L36.3643 10.8587V0.858086C36.3643 0.629463 36.2854 0.441449 36.1271 0.294299C35.9701 0.147321 35.7683 0.0738324 35.5223 0.0738324H30.4707C30.2251 0.0738324 30.0233 0.147321 29.8653 0.294299C29.7076 0.441449 29.6288 0.629549 29.6288 0.858086V5.6377L23.2091 0.637276C22.6485 0.212397 21.9818 0 21.2099 0C20.4381 0 19.7716 0.212397 19.2104 0.637276L0.292366 15.3197C0.116996 15.4502 0.0208783 15.6258 0.00300033 15.8465C-0.0147855 16.0669 0.0464974 16.2595 0.187033 16.4228L1.81826 18.2367C1.9588 18.3836 2.14274 18.4735 2.37082 18.5064C2.5814 18.5229 2.79197 18.4655 3.00255 18.3349L21.2094 4.19153L39.4164 18.3348C39.557 18.4488 39.7409 18.5057 39.9689 18.5057H40.048C40.2757 18.4734 40.4593 18.383 40.6006 18.2363L42.232 16.4227C42.3722 16.2591 42.4337 16.0669 42.4155 15.8461C42.3975 15.6261 42.301 15.4504 42.126 15.3197Z" fill="white"/>
</svg>
