<svg width="58" height="53" viewBox="0 0 58 53" fill="none" xmlns="http://www.w3.org/2000/svg">
<path d="M22.7457 21.4401H20.4087V21.4609L16.2705 27.3725L16.4073 28.6839H20.3973V30.6094H22.7343V28.6735H23.7489V27.0187H22.7343V21.4401H22.7457ZM20.4087 27.0291H18.2769L20.1123 24.6457L20.3631 24.1773L20.4087 24.1878V27.0291Z" fill="white"/>
<path d="M28.2178 21.3048C27.1576 21.3048 26.314 21.617 25.6756 22.2311C25.0372 22.8556 24.718 23.709 24.718 24.8018V27.2373C24.718 28.3301 25.0372 29.1939 25.6756 29.808C26.314 30.4325 27.169 30.7343 28.2178 30.7343C29.2666 30.7343 30.1102 30.4221 30.7486 29.808C31.387 29.1835 31.7062 28.3301 31.7062 27.2373V24.8018C31.7062 23.709 31.387 22.8556 30.7372 22.2311C30.1102 21.617 29.2666 21.3048 28.2178 21.3048ZM29.392 27.3726C29.392 27.945 29.2894 28.3717 29.0842 28.6631C28.879 28.9545 28.594 29.1003 28.2292 29.1003C27.853 29.1003 27.5566 28.9545 27.3514 28.6631C27.1462 28.3717 27.0436 27.9346 27.0436 27.3726V24.6665C27.0436 24.1045 27.1462 23.6778 27.3514 23.3864C27.5566 23.095 27.8416 22.9492 28.2178 22.9492C28.5826 22.9492 28.879 23.095 29.0842 23.3864C29.2894 23.6778 29.4034 24.1045 29.4034 24.6665V27.3726H29.392Z" fill="white"/>
<path d="M39.3212 22.2519L34.4192 29.4229L35.5022 29.9224L40.4042 22.7515L39.3212 22.2519Z" fill="white"/>
<path d="M41.6127 27.0083C41.2251 26.6544 40.6779 26.4775 39.9483 26.4775C39.2301 26.4775 38.6829 26.6544 38.2953 27.0187C37.9077 27.3726 37.7139 27.8305 37.7139 28.3717V28.8609C37.7139 29.4021 37.9077 29.86 38.3067 30.2139C38.6943 30.5678 39.2529 30.7447 39.9711 30.7447C40.6893 30.7447 41.2365 30.5678 41.6127 30.2139C42.0003 29.86 42.1941 29.4021 42.1941 28.8609V28.3717C42.1941 27.8097 42.0003 27.3621 41.6127 27.0083ZM40.7007 28.8505C40.7007 29.0898 40.6551 29.2668 40.5525 29.4021C40.4499 29.5374 40.2561 29.5998 39.9711 29.5998C39.7545 29.5998 39.5835 29.527 39.4353 29.3813C39.2871 29.2356 39.2187 29.0586 39.2187 28.8609V28.3717C39.2187 28.1635 39.2871 27.9866 39.4125 27.8409C39.5379 27.6952 39.7203 27.6223 39.9597 27.6223C40.1991 27.6223 40.3815 27.6952 40.5069 27.8409C40.6323 27.9866 40.7007 28.1635 40.7007 28.3717V28.8505Z" fill="white"/>
<path d="M36.8361 25.0412C37.2237 24.6873 37.4175 24.2398 37.4175 23.6882V23.199C37.4175 22.6578 37.2237 22.1999 36.8361 21.846C36.4485 21.4921 35.8899 21.3048 35.1717 21.3048C34.4535 21.3048 33.9063 21.4817 33.5187 21.846C33.1311 22.1999 32.9373 22.6578 32.9373 23.199V23.6882C32.9373 24.2294 33.1311 24.6769 33.5187 25.0412C33.9063 25.3951 34.4649 25.572 35.1831 25.572C35.9013 25.572 36.4485 25.3951 36.8361 25.0412ZM34.4307 23.6882V23.199C34.4307 22.9909 34.4991 22.8139 34.6245 22.6682C34.7499 22.5225 34.9323 22.4497 35.1717 22.4497C35.4111 22.4497 35.5935 22.5225 35.7189 22.6682C35.8443 22.8139 35.9127 22.9909 35.9127 23.199V23.6882C35.9127 23.8964 35.8443 24.0733 35.7189 24.219C35.5935 24.3647 35.4111 24.4272 35.1717 24.4272C34.9323 24.4272 34.7385 24.3543 34.6131 24.219C34.4991 24.0733 34.4307 23.8964 34.4307 23.6882Z" fill="white"/>
<path d="M29.2322 52.0391C21.617 52.0391 14.4578 49.333 9.07698 44.4205C3.69618 39.5081 0.732178 32.972 0.732178 26.0195C0.732178 19.0671 3.69618 12.5414 9.07698 7.62893C14.4692 2.70603 21.617 0 29.2322 0C36.8474 0 44.0066 2.70603 49.3874 7.61852C54.7682 12.531 57.7322 19.0671 57.7322 26.0195C57.7322 32.972 54.7682 39.5081 49.3874 44.4205C44.0066 49.333 36.8474 52.0391 29.2322 52.0391ZM29.2322 4.73555C16.373 4.73555 5.91918 14.2899 5.91918 26.0195C5.91918 37.7491 16.373 47.3139 29.2322 47.3139C42.0914 47.3139 52.5452 37.7595 52.5452 26.0299C52.5452 14.3003 42.0914 4.73555 29.2322 4.73555Z" fill="#E7EBEC"/>
<path d="M44.8502 47.7927L42.0116 43.8377C45.956 41.4751 48.9884 38.1342 50.7896 34.1688C51.9638 31.5877 52.5566 28.84 52.5566 26.0195C52.5566 24.3335 52.34 22.6682 51.9182 21.0446C50.7212 16.4964 47.8598 12.3749 43.847 9.41907C39.6632 6.35917 34.613 4.73555 29.2322 4.73555V0C32.5382 0 35.7758 0.509983 38.8538 1.51954C41.8292 2.49788 44.5994 3.91334 47.0732 5.7347C51.9752 9.33581 55.4864 14.3836 56.9456 19.9414C57.4586 21.9189 57.7322 23.9692 57.7322 26.0195C57.7322 29.4645 57.0026 32.8158 55.5662 35.9798C53.3774 40.8194 49.661 44.9097 44.8502 47.7927Z" fill="#7CD1F9"/>
</svg>
